<?xml version="1.0" encoding="UTF-8" standalone="no"?>
<!-- Created with Inkscape (http://www.inkscape.org/) -->

<svg
   version="1.1"
   id="svg2"
   xml:space="preserve"
   width="549.99994"
   height="584.64923"
   viewBox="0 0 549.99994 584.64923"
   sodipodi:docname="css_logo.svg"
   xmlns:inkscape="http://www.inkscape.org/namespaces/inkscape"
   xmlns:sodipodi="http://sodipodi.sourceforge.net/DTD/sodipodi-0.dtd"
   xmlns="http://www.w3.org/2000/svg"
   xmlns:svg="http://www.w3.org/2000/svg"><defs
     id="defs6" /><sodipodi:namedview
     id="namedview4"
     pagecolor="#ffffff"
     bordercolor="#fffcfc"
     borderopacity="1"
     inkscape:pageshadow="2"
     inkscape:pageopacity="0.0"
     inkscape:pagecheckerboard="0"
     inkscape:showpageshadow="0"
     inkscape:deskcolor="#ffffff"
     showgrid="false" /><g
     id="g8"
     inkscape:groupmode="layer"
     inkscape:label="ink_ext_XXXXXX"
     transform="matrix(1.3333333,0,0,-1.3333333,-94.419342,676.52753)"><g
       id="g29884"
       style="fill:none"
       inkscape:export-filename="aws_logo.svg"
       inkscape:export-xdpi="96"
       inkscape:export-ydpi="96"><rect
         style="display:inline;fill:none;stroke-width:0.791204;paint-order:markers stroke fill"
         id="rect13435"
         width="412.5"
         height="438.48697"
         x="70.814507"
         y="-507.39566"
         transform="scale(1,-1)"
         ry="0"
         rx="0"
         inkscape:export-filename="spring_boot_logo.svg"
         inkscape:export-xdpi="96"
         inkscape:export-ydpi="96" /></g><path
       id="path14"
       style="fill:#ffffff;fill-opacity:1;fill-rule:nonzero;stroke:none;stroke-width:0.13178"
       d="m 190.6123,320.57004 c 0,-4.87586 0.52712,-8.82926 1.44958,-11.72842 1.05424,-2.89915 2.37204,-6.06187 4.21696,-9.48815 0.6589,-1.05424 0.92246,-2.10848 0.92246,-3.03094 0,-1.3178 -0.79068,-2.63559 -2.50382,-3.95339 l -8.30213,-5.53476 c -1.18602,-0.79068 -2.37204,-1.18602 -3.42628,-1.18602 -1.3178,0 -2.6356,0.6589 -3.9534,1.84492 -1.84492,1.9767 -3.42628,4.08518 -4.74407,6.19366 -1.3178,2.24025 -2.6356,4.74407 -4.08518,7.77501 -10.27883,-12.12375 -23.19327,-18.18563 -38.7433,-18.18563 -11.06951,0 -19.89876,3.16272 -26.35598,9.48816 -6.457213,6.32543 -9.751711,14.75935 -9.751711,25.30174 0,11.20129 3.953398,20.2941 11.991971,27.14666 8.03858,6.85256 18.71275,10.27883 32.28608,10.27883 4.48052,0 9.09281,-0.39534 13.96867,-1.05424 4.87586,-0.6589 9.88349,-1.71314 15.15469,-2.89915 v 9.61993 c 0,10.01527 -2.10848,16.99961 -6.19366,21.08478 -4.21695,4.08518 -11.33307,6.06188 -21.48012,6.06188 -4.6123,0 -9.35638,-0.52712 -14.23223,-1.71314 -4.87586,-1.18602 -9.61994,-2.6356 -14.23223,-4.48052 -2.10848,-0.92245 -3.68984,-1.44957 -4.6123,-1.71313 -0.92246,-0.26356 -1.58136,-0.39534 -2.10848,-0.39534 -1.84492,0 -2.76738,1.3178 -2.76738,4.08517 v 6.45722 c 0,2.10848 0.26356,3.68984 0.92246,4.6123 0.6589,0.92246 1.84492,1.84491 3.68984,2.76737 4.6123,2.37204 10.14705,4.34874 16.60427,5.9301 6.45722,1.71314 13.30977,2.50382 20.55767,2.50382 15.6818,0 27.14666,-3.55806 34.52633,-10.67417 7.2479,-7.11612 10.93773,-17.92207 10.93773,-32.41786 v -42.69669 z m -53.50264,-20.03055 c 4.34874,0 8.82925,0.79068 13.57333,2.37204 4.74408,1.58136 8.96104,4.48052 12.51909,8.43391 2.10848,2.50382 3.68984,5.2712 4.48052,8.43392 0.79068,3.16272 1.3178,6.98433 1.3178,11.46485 v 5.53476 c -3.82162,0.92246 -7.9068,1.71313 -12.12375,2.24025 -4.21696,0.52712 -8.30214,0.79068 -12.38731,0.79068 -8.82926,0 -15.28647,-1.71314 -19.63521,-5.27119 -4.34874,-3.55806 -6.45722,-8.5657 -6.45722,-15.15469 0,-6.19366 1.58136,-10.80595 4.87586,-13.96867 3.16272,-3.2945 7.77502,-4.87586 13.83689,-4.87586 z m 105.81927,-14.23223 c -2.37204,0 -3.9534,0.39534 -5.00764,1.3178 -1.05424,0.79068 -1.9767,2.6356 -2.76738,5.13942 l -30.96827,101.86587 c -0.79068,2.63559 -1.18602,4.34873 -1.18602,5.27119 0,2.10848 1.05424,3.2945 3.16271,3.2945 h 12.91443 c 2.50382,0 4.21696,-0.39534 5.13942,-1.3178 1.05424,-0.79068 1.84492,-2.6356 2.6356,-5.13942 l 22.13902,-87.2383 20.55767,87.2383 c 0.6589,2.6356 1.44958,4.34874 2.50382,5.13942 1.05424,0.79068 2.89916,1.3178 5.2712,1.3178 h 10.54239 c 2.50382,0 4.21696,-0.39534 5.27119,-1.3178 1.05424,-0.79068 1.9767,-2.6356 2.50382,-5.13942 l 20.82123,-88.29253 22.79792,88.29253 c 0.79068,2.6356 1.71314,4.34874 2.6356,5.13942 1.05424,0.79068 2.76738,1.3178 5.13942,1.3178 h 12.25553 c 2.10848,0 3.2945,-1.05424 3.2945,-3.2945 0,-0.6589 -0.13178,-1.3178 -0.26356,-2.10848 -0.13178,-0.79068 -0.39534,-1.84491 -0.92246,-3.29449 L 329.64011,292.6327 c -0.79068,-2.6356 -1.71314,-4.34874 -2.76738,-5.13942 -1.05424,-0.79068 -2.76738,-1.3178 -5.00764,-1.3178 h -11.33307 c -2.50382,0 -4.21695,0.39534 -5.27119,1.3178 -1.05424,0.92246 -1.9767,2.6356 -2.50382,5.2712 l -20.42589,84.99804 -20.2941,-84.86626 c -0.6589,-2.6356 -1.44958,-4.34874 -2.50382,-5.2712 -1.05424,-0.92246 -2.89916,-1.3178 -5.2712,-1.3178 z m 169.33718,-3.55806 c -6.85255,0 -13.70511,0.79068 -20.2941,2.37204 -6.589,1.58136 -11.72842,3.2945 -15.15469,5.2712 -2.10848,1.18602 -3.55806,2.50382 -4.08518,3.68984 -0.52712,1.18601 -0.79068,2.50381 -0.79068,3.68983 v 6.72078 c 0,2.76738 1.05424,4.08518 3.03094,4.08518 0.79068,0 1.58136,-0.13178 2.37204,-0.39534 0.79068,-0.26356 1.9767,-0.79068 3.29449,-1.3178 4.48052,-1.9767 9.35638,-3.55806 14.49579,-4.6123 5.2712,-1.05424 10.41062,-1.58136 15.68181,-1.58136 8.30214,0 14.75935,1.44958 19.23987,4.34874 4.48052,2.89916 6.85256,7.11611 6.85256,12.51909 0,3.68984 -1.18602,6.72077 -3.55806,9.22459 -2.37204,2.50382 -6.85256,4.74408 -13.30977,6.85256 l -19.10809,5.93009 c -9.61993,3.03094 -16.73605,7.51146 -21.08478,13.44155 -4.34874,5.79832 -6.589,12.25554 -6.589,19.10809 0,5.53476 1.18602,10.41061 3.55806,14.62757 2.37204,4.21696 5.53475,7.9068 9.48815,10.80595 3.9534,3.03094 8.43391,5.2712 13.70511,6.85256 5.2712,1.58136 10.80595,2.24026 16.60427,2.24026 2.89916,0 5.9301,-0.13178 8.82925,-0.52712 3.03094,-0.39534 5.79832,-0.92246 8.5657,-1.44958 2.6356,-0.6589 5.13941,-1.3178 7.51145,-2.10848 2.37204,-0.79068 4.21696,-1.58136 5.53476,-2.37204 1.84492,-1.05424 3.16272,-2.10848 3.9534,-3.2945 0.79068,-1.05423 1.18602,-2.50381 1.18602,-4.34873 v -6.19366 c 0,-2.76738 -1.05424,-4.21696 -3.03094,-4.21696 -1.05424,0 -2.76738,0.52712 -5.00764,1.58136 -7.51145,3.42628 -15.94537,5.13942 -25.30174,5.13942 -7.51146,0 -13.44155,-1.18602 -17.52673,-3.68984 -4.08518,-2.50382 -6.19366,-6.32543 -6.19366,-11.72841 0,-3.68984 1.3178,-6.85255 3.9534,-9.35637 2.6356,-2.50382 7.51146,-5.00764 14.49579,-7.2479 l 18.71275,-5.93009 c 9.48815,-3.03094 16.34071,-7.2479 20.42589,-12.65088 4.08517,-5.40297 6.06187,-11.59663 6.06187,-18.44918 0,-5.66654 -1.18602,-10.80596 -3.42628,-15.28647 -2.37203,-4.48052 -5.53475,-8.43392 -9.61993,-11.59663 -4.08518,-3.2945 -8.96103,-5.66654 -14.62757,-7.37968 -5.9301,-1.84492 -12.12375,-2.76738 -18.84453,-2.76738" /><path
       id="path16"
       style="fill:#ff9900;fill-opacity:1;fill-rule:nonzero;stroke:none;stroke-width:0.13178"
       d="m 437.17252,218.70417 c -43.35559,-32.02252 -106.34639,-49.02213 -160.50793,-49.02213 -75.90523,0 -144.29901,28.06912 -195.956691,74.71921 -4.085177,3.68984 -0.39534,8.69747 4.480517,5.79832 55.874644,-32.41786 124.795534,-52.05307 196.088464,-52.05307 48.09967,0 100.94341,10.01527 149.5702,30.57294 7.2479,3.2945 13.44155,-4.74408 6.32544,-10.01527 z m 18.05384,20.55766 c -5.53475,7.11612 -36.63481,3.42628 -50.73526,1.71314 -4.21696,-0.52712 -4.87586,3.16272 -1.05424,5.9301 24.77462,17.39495 65.49461,12.38731 70.23869,6.58899 4.74408,-5.93009 -1.3178,-46.65009 -24.51106,-66.15351 -3.55806,-3.03094 -6.98434,-1.44958 -5.40298,2.50382 5.2712,13.04621 16.99961,42.43313 11.46485,49.41746" /></g></svg>
