<?xml version="1.0" encoding="UTF-8" standalone="no"?>
<!-- Created with Inkscape (http://www.inkscape.org/) -->

<svg
   version="1.1"
   id="svg2"
   xml:space="preserve"
   width="549.99994"
   height="584.64923"
   viewBox="0 0 549.99994 584.64923"
   sodipodi:docname="css_logo.svg"
   xmlns:inkscape="http://www.inkscape.org/namespaces/inkscape"
   xmlns:sodipodi="http://sodipodi.sourceforge.net/DTD/sodipodi-0.dtd"
   xmlns="http://www.w3.org/2000/svg"
   xmlns:svg="http://www.w3.org/2000/svg"><defs
     id="defs6" /><sodipodi:namedview
     id="namedview4"
     pagecolor="#ffffff"
     bordercolor="#fffcfc"
     borderopacity="1"
     inkscape:pageshadow="2"
     inkscape:pageopacity="0.0"
     inkscape:pagecheckerboard="0"
     inkscape:showpageshadow="0"
     inkscape:deskcolor="#ffffff"
     showgrid="false" /><g
     id="g8"
     inkscape:groupmode="layer"
     inkscape:label="ink_ext_XXXXXX"
     transform="matrix(1.3333333,0,0,-1.3333333,-94.419342,676.52753)"><g
       id="g29884"
       style="fill:none"
       inkscape:export-filename="react_logo.svg"
       inkscape:export-xdpi="96"
       inkscape:export-ydpi="96"><rect
         style="display:inline;fill:none;stroke-width:0.791204;paint-order:markers stroke fill"
         id="rect13435"
         width="412.5"
         height="438.48697"
         x="70.814507"
         y="-507.39566"
         transform="scale(1,-1)"
         ry="0"
         rx="0"
         inkscape:export-filename="spring_boot_logo.svg"
         inkscape:export-xdpi="96"
         inkscape:export-ydpi="96" /></g><g
       id="g29987"
       transform="matrix(0.41439436,0,0,-0.41439436,78.155214,479.81983)"><path
         d="m 958.9,442.4 c 1.1,26.1 -2,52.1 -9.2,77.2 -7.1,25.1 -18.3,48.8 -33.1,70.3 A 240.43,240.43 0 0 1 863,646.1 l -0.5,0.4 -199.9,149.8 -98.3,74.5 -59.9,45.2 c -3.5,2.7 -7.4,4.7 -11.5,6.1 -4.1,1.4 -8.5,2.1 -12.9,2.1 -4.3,0 -8.7,-0.7 -12.8,-2.1 -4.1,-1.4 -8,-3.4 -11.5,-6.1 L 395.8,870.8 297.5,796.3 98.8,647.4 97.6,646.6 97.2,646.2 C 76.3,630.5 58.2,611.5 43.4,590 28.6,568.5 17.4,544.7 10.2,519.6 3,494.5 -0.1,468.4 1,442.3 2.2,416.2 7.5,390.5 16.8,366.1 l 1.3,-3.5 130.7,-340.5 q 1,-2.5 2.4,-4.8 1.3,-2.3 3.1,-4.3 1.7,-2.1 3.7,-3.9 2,-1.7 4.2,-3.2 c 3.1,-1.9 6.3,-3.3 9.8,-4.1 3.4,-0.9 7,-1.3 10.5,-1.1 3.6,0.2 7.1,0.9 10.4,2.2 3.3,1.2 6.5,3 9.3,5.2 q 2,1.7 3.9,3.6 1.8,2 3.2,4.3 1.5,2.2 2.6,4.7 1.1,2.4 1.8,5 l 88.1,269.7 H 658.4 L 746.5,25.7 q 0.7,-2.6 1.9,-5 1.1,-2.4 2.6,-4.7 1.4,-2.2 3.2,-4.2 1.8,-2 3.9,-3.7 c 2.8,-2.2 5.9,-3.9 9.2,-5.2 3.4,-1.2 6.9,-1.9 10.4,-2.1 3.6,-0.2 7.1,0.1 10.6,1 3.4,0.9 6.7,2.3 9.7,4.2 q 2.3,1.4 4.3,3.2 2,1.7 3.7,3.8 1.7,2.1 3.1,4.4 1.3,2.3 2.3,4.8 l 130.5,340.6 1.3,3.5 c 9.3,24.3 14.6,50 15.7,76.1 z"
         fill="#e24329"
         id="path29969" /><path
         d="m 959,442.5 c 1.1,26 -2,52.1 -9.2,77.2 -7.2,25.1 -18.4,48.9 -33.2,70.4 -14.8,21.5 -32.9,40.5 -53.7,56.2 l -0.5,0.4 -199.9,149.8 c 0,0 -84.9,-64.1 -182.5,-138 L 766.5,441.7 c 12.9,-9.7 26.4,-18.6 40.3,-26.8 13.9,-8.3 28.3,-15.7 43,-22.3 14.8,-6.6 29.9,-12.5 45.2,-17.4 15.4,-5 31,-9.1 46.9,-12.4 l 1.3,3.5 c 9.3,24.4 14.6,50.1 15.8,76.2 z"
         fill="#fc6d26"
         id="path29971" /><path
         d="m 480,658.5 c 97.6,73.7 182.6,138 182.6,138 l -98.3,74.5 -59.9,45.2 c -3.5,2.7 -7.4,4.7 -11.5,6.1 -4.1,1.4 -8.5,2.1 -12.9,2.1 -4.3,0 -8.7,-0.7 -12.8,-2.1 -4.1,-1.4 -8,-3.4 -11.5,-6.1 L 395.8,871 297.5,796.5 c 0,0 84.9,-64.3 182.5,-138 z"
         fill="#fca326"
         id="path29973" /><path
         d="m 480,658.3 c -97.7,73.9 -182.5,138 -182.5,138 L 98.8,647.4 97.6,646.6 97.2,646.2 C 76.3,630.5 58.2,611.5 43.4,590 28.6,568.5 17.4,544.7 10.2,519.6 3,494.5 -0.1,468.4 1,442.3 2.2,416.2 7.5,390.5 16.8,366.1 l 1.3,-3.5 C 34,365.9 49.6,370 65,375 c 15.3,5 30.4,10.8 45.2,17.5 14.7,6.6 29.1,14.1 43,22.3 13.9,8.2 27.3,17.2 40.3,26.9 z"
         fill="#fc6d26"
         id="path29975" /></g></g></svg>
