<?xml version="1.0" encoding="UTF-8" standalone="no"?>
<!-- Created with Inkscape (http://www.inkscape.org/) -->

<svg
   version="1.1"
   id="svg2"
   xml:space="preserve"
   width="550"
   height="584.64929"
   viewBox="0 0 550 584.64929"
   sodipodi:docname="java_logo.svg"
   xmlns:inkscape="http://www.inkscape.org/namespaces/inkscape"
   xmlns:sodipodi="http://sodipodi.sourceforge.net/DTD/sodipodi-0.dtd"
   xmlns="http://www.w3.org/2000/svg"
   xmlns:svg="http://www.w3.org/2000/svg"><defs
     id="defs6" /><sodipodi:namedview
     id="namedview4"
     pagecolor="#ffffff"
     bordercolor="#fffcfc"
     borderopacity="1"
     inkscape:pageshadow="2"
     inkscape:pageopacity="0.0"
     inkscape:pagecheckerboard="0"
     inkscape:showpageshadow="0"
     inkscape:deskcolor="#ffffff"
     showgrid="false" /><g
     id="g8"
     inkscape:groupmode="layer"
     inkscape:label="ink_ext_XXXXXX"
     transform="matrix(1.3333333,0,0,-1.3333333,-94.41934,676.52753)"><rect
       style="display:inline;fill:none;stroke-width:0.791204;paint-order:markers stroke fill"
       id="rect13435"
       width="412.5"
       height="438.48697"
       x="70.814507"
       y="-507.39566"
       transform="scale(1,-1)"
       ry="0"
       rx="0"
       inkscape:export-filename="css_logo.svg"
       inkscape:export-xdpi="96"
       inkscape:export-ydpi="96" /><path
       d="m 319.65534,498.8689 c 9.68865,-10.98823 12.88658,-26.69891 10.10102,-40.86932 -2.98969,-15.91605 -11.85565,-29.98377 -22.26698,-42.1005 -8.3505,-9.755 -17.93915,-18.38047 -27.9381,-26.38983 -11.64947,-9.34426 -23.09275,-19.4073 -30.41233,-32.55088 -6.18556,-10.67915 -7.62885,-23.82272 -3.40206,-35.42603 6.90721,-19.92072 22.98966,-34.70724 31.75253,-53.49844 -9.6907,8.52278 -19.17522,17.35362 -28.04119,26.69788 -9.27834,9.85768 -18.04121,20.33146 -23.8144,32.65356 -3.91752,8.62547 -5.67009,18.68851 -2.68041,27.8274 2.98969,9.34426 9.69071,16.8402 16.39173,23.82273 18.65977,18.58583 41.65046,32.24282 59.89682,51.1367 10.10411,10.3711 18.45358,22.79588 21.33914,37.06898 2.37216,10.47378 1.23815,21.25562 -0.92577,31.62775 v 0"
       style="fill:#ea232d;fill-opacity:1;fill-rule:nonzero;stroke:none;stroke-width:0.102888"
       id="path12" /><path
       d="m 319.65534,498.8689 c 9.68865,-10.98823 12.88658,-26.69891 10.10102,-40.86932 -2.98969,-15.91605 -11.85565,-29.98377 -22.26698,-42.1005 -8.3505,-9.755 -17.93915,-18.38047 -27.9381,-26.38983 -11.64947,-9.34426 -23.09275,-19.4073 -30.41233,-32.55088 -6.18556,-10.67915 -7.62885,-23.82272 -3.40206,-35.42603 6.90721,-19.92072 22.98966,-34.70724 31.75253,-53.49844 -9.6907,8.52278 -19.17522,17.35362 -28.04119,26.69788 -9.27834,9.85768 -18.04121,20.33146 -23.8144,32.65356 -3.91752,8.62547 -5.67009,18.68851 -2.68041,27.8274 2.98969,9.34426 9.69071,16.8402 16.39173,23.82273 18.65977,18.58583 41.65046,32.24282 59.89682,51.1367 10.10411,10.3711 18.45358,22.79588 21.33914,37.06898 2.37216,10.47378 1.23815,21.25562 -0.92577,31.62775 z"
       style="fill:none;stroke:#ea232d;stroke-width:0.0964577;stroke-linecap:butt;stroke-linejoin:miter;stroke-miterlimit:10;stroke-dasharray:none;stroke-opacity:1"
       id="path14" /><path
       d="m 304.3966,381.91062 c 19.99997,14.68384 43.40097,24.02809 67.11227,30.80525 -18.76183,-11.91136 -38.34942,-22.79588 -54.536,-38.09582 -5.87525,-5.64763 -11.44328,-12.11673 -14.0206,-20.02341 -1.95876,-5.853 -1.13298,-12.3221 1.23918,-17.86704 4.32886,-9.85768 11.6474,-17.86705 17.21544,-26.90325 4.74123,-7.70131 5.567,-17.55899 1.95876,-25.87641 -5.46494,-12.21941 -16.18658,-21.15293 -27.31955,-28.23814 -1.4433,-0.82147 -2.67938,-2.36173 -4.43402,-2.5671 7.42474,6.67447 13.19689,16.12141 12.98968,26.28714 -0.20516,7.59863 -4.43196,14.2731 -9.38143,19.71536 -10.20617,12.11673 -18.76183,27.51935 -17.00926,43.84613 1.75361,16.32678 13.50411,29.47035 26.18553,38.91729 v 0"
       style="fill:#ea232d;fill-opacity:1;fill-rule:nonzero;stroke:none;stroke-width:0.102888"
       id="path16" /><path
       d="m 304.3966,381.91062 c 19.99997,14.68384 43.40097,24.02809 67.11227,30.80525 -18.76183,-11.91136 -38.34942,-22.79588 -54.536,-38.09582 -5.87525,-5.64763 -11.44328,-12.11673 -14.0206,-20.02341 -1.95876,-5.853 -1.13298,-12.3221 1.23918,-17.86704 4.32886,-9.85768 11.6474,-17.86705 17.21544,-26.90325 4.74123,-7.70131 5.567,-17.55899 1.95876,-25.87641 -5.46494,-12.21941 -16.18658,-21.15293 -27.31955,-28.23814 -1.4433,-0.82147 -2.67938,-2.36173 -4.43402,-2.5671 7.42474,6.67447 13.19689,16.12141 12.98968,26.28714 -0.20516,7.59863 -4.43196,14.2731 -9.38143,19.71536 -10.20617,12.11673 -18.76183,27.51935 -17.00926,43.84613 1.75361,16.32678 13.50411,29.47035 26.18553,38.91729 z"
       style="fill:none;stroke:#ea232d;stroke-width:0.0964577;stroke-linecap:butt;stroke-linejoin:miter;stroke-miterlimit:10;stroke-dasharray:none;stroke-opacity:1"
       id="path18" /><path
       d="m 375.32536,263.20775 c 4.32886,5.23689 11.23504,6.57178 17.52575,7.39325 10.92679,1.43758 22.57522,-1.33489 30.82263,-8.83083 6.80618,-6.05837 10.61958,-15.50531 9.17525,-24.6442 -1.54639,-10.57647 -8.65978,-19.4073 -16.69998,-26.08177 -14.53503,-11.60331 -32.47418,-18.38047 -50.41229,-22.8996 1.03092,1.13158 2.16391,2.15843 3.50515,2.97887 13.60719,7.29058 27.11233,15.81336 37.11334,27.72472 6.0835,7.39326 10.82473,17.04557 8.86597,26.80057 -2.06185,11.29525 -13.09173,19.50998 -24.32986,20.12609 -5.36185,0.51342 -10.41133,-1.54026 -15.56596,-2.5671 v 0"
       style="fill:#3471c1;fill-opacity:1;fill-rule:nonzero;stroke:none;stroke-width:0.102888"
       id="path20" /><path
       d="m 375.32536,263.20775 c 4.32886,5.23689 11.23504,6.57178 17.52575,7.39325 10.92679,1.43758 22.57522,-1.33489 30.82263,-8.83083 6.80618,-6.05837 10.61958,-15.50531 9.17525,-24.6442 -1.54639,-10.57647 -8.65978,-19.4073 -16.69998,-26.08177 -14.53503,-11.60331 -32.47418,-18.38047 -50.41229,-22.8996 1.03092,1.13158 2.16391,2.15843 3.50515,2.97887 13.60719,7.29058 27.11233,15.81336 37.11334,27.72472 6.0835,7.39326 10.82473,17.04557 8.86597,26.80057 -2.06185,11.29525 -13.09173,19.50998 -24.32986,20.12609 -5.36185,0.51342 -10.41133,-1.54026 -15.56596,-2.5671 z"
       style="fill:#ffffff;fill-opacity:1;stroke:#3471c1;stroke-width:0.0964577;stroke-linecap:butt;stroke-linejoin:miter;stroke-miterlimit:10;stroke-dasharray:none;stroke-opacity:1"
       id="path22" /><path
       d="m 168.10753,253.86349 c 18.96904,8.11205 39.58757,13.34894 60.3098,13.04088 -12.06183,-3.49126 -24.43316,-6.4691 -35.77335,-11.80867 -2.6804,-1.43758 -5.77318,-2.77247 -7.31957,-5.54495 -0.82516,-2.15636 1.44329,-3.59394 3.09278,-4.31273 7.00988,-2.87516 14.74183,-3.28589 22.268,-4.00468 26.39192,-1.74563 52.88673,-0.71879 79.17535,0.92415 25.97831,1.64295 51.75147,5.13421 77.42257,9.24158 -5.6701,-2.66979 -11.44329,-5.33958 -16.69998,-8.72815 -2.68247,-1.84832 -5.9804,-2.36174 -8.97112,-3.08053 -31.54531,-6.98252 -63.9164,-9.13889 -96.0813,-9.65231 -12.47421,-0.10268 -24.84532,0.10268 -37.21706,0.92416 -13.814,0.92416 -27.7315,1.951 -41.23705,5.54494 -3.91711,1.12953 -8.04081,2.36174 -11.13359,5.13421 -1.54639,1.23221 -1.54639,3.69663 -0.2066,5.13421 3.40247,3.49126 8.14432,5.1342 12.37112,7.18789 v 0"
       style="fill:#3471c1;fill-opacity:1;fill-rule:nonzero;stroke:none;stroke-width:0.102888"
       id="path24" /><path
       d="m 168.10753,253.86349 c 18.96904,8.11205 39.58757,13.34894 60.3098,13.04088 -12.06183,-3.49126 -24.43316,-6.4691 -35.77335,-11.80867 -2.6804,-1.43758 -5.77318,-2.77247 -7.31957,-5.54495 -0.82516,-2.15636 1.44329,-3.59394 3.09278,-4.31273 7.00988,-2.87516 14.74183,-3.28589 22.268,-4.00468 26.39192,-1.74563 52.88673,-0.71879 79.17535,0.92415 25.97831,1.64295 51.75147,5.13421 77.42257,9.24158 -5.6701,-2.66979 -11.44329,-5.33958 -16.69998,-8.72815 -2.68247,-1.84832 -5.9804,-2.36174 -8.97112,-3.08053 -31.54531,-6.98252 -63.9164,-9.13889 -96.0813,-9.65231 -12.47421,-0.10268 -24.84532,0.10268 -37.21706,0.92416 -13.814,0.92416 -27.7315,1.951 -41.23705,5.54494 -3.91711,1.12953 -8.04081,2.36174 -11.13359,5.13421 -1.54639,1.23221 -1.54639,3.69663 -0.2066,5.13421 3.40247,3.49126 8.14432,5.1342 12.37112,7.18789 z"
       style="fill:#ffffff;fill-opacity:1;stroke:#3471c1;stroke-width:0.0964577;stroke-linecap:butt;stroke-linejoin:miter;stroke-miterlimit:10;stroke-dasharray:none;stroke-opacity:1"
       id="path26" /><path
       d="m 192.4378,210.01736 c 5.36082,4.21005 11.75215,6.57178 18.1443,8.83083 -2.06185,-2.46442 -4.94886,-4.82615 -5.15463,-8.21473 -0.10309,-2.15637 1.64948,-3.79931 3.40164,-4.82615 3.40247,-1.74564 7.21711,-2.36174 11.03153,-2.87516 19.79379,-2.05368 39.79376,-3.18321 59.79373,-1.84832 18.24636,0.92416 36.39273,3.902 54.43394,7.08521 4.94638,-4.62079 10.82473,-7.80399 17.01028,-10.57647 -21.7546,-6.36641 -44.12467,-10.06304 -66.5999,-11.80765 -21.23605,-1.4386 -42.78241,-1.33592 -63.9164,2.05369 -8.35071,1.54026 -16.90781,3.28486 -24.53625,7.18686 -3.09278,1.64295 -6.59793,3.79931 -7.52576,7.39326 -0.61856,3.08052 1.64907,5.85299 3.91752,7.59863 v 0"
       style="fill:#3471c1;fill-opacity:1;fill-rule:nonzero;stroke:none;stroke-width:0.102888"
       id="path28" /><path
       d="m 192.4378,210.01736 c 5.36082,4.21005 11.75215,6.57178 18.1443,8.83083 -2.06185,-2.46442 -4.94886,-4.82615 -5.15463,-8.21473 -0.10309,-2.15637 1.64948,-3.79931 3.40164,-4.82615 3.40247,-1.74564 7.21711,-2.36174 11.03153,-2.87516 19.79379,-2.05368 39.79376,-3.18321 59.79373,-1.84832 18.24636,0.92416 36.39273,3.902 54.43394,7.08521 4.94638,-4.62079 10.82473,-7.80399 17.01028,-10.57647 -21.7546,-6.36641 -44.12467,-10.06304 -66.5999,-11.80765 -21.23605,-1.4386 -42.78241,-1.33592 -63.9164,2.05369 -8.35071,1.54026 -16.90781,3.28486 -24.53625,7.18686 -3.09278,1.64295 -6.59793,3.79931 -7.52576,7.39326 -0.61856,3.08052 1.64907,5.85299 3.91752,7.59863 z"
       style="fill:#ffffff;fill-opacity:1;stroke:#3471c1;stroke-width:0.0964577;stroke-linecap:butt;stroke-linejoin:miter;stroke-miterlimit:10;stroke-dasharray:none;stroke-opacity:1"
       id="path30-9" /><path
       d="m 204.39654,165.24809 c 4.74227,3.79829 10.61875,5.74929 16.39194,7.39223 -1.85567,-1.7446 -5.15463,-3.90097 -3.71134,-6.87881 2.7835,-3.59394 7.93814,-4.00571 12.06184,-4.92986 17.42266,-2.15637 35.0515,-3.59395 52.47415,-2.25803 13.19483,0.81942 26.18656,3.18218 39.07314,5.44021 7.42164,-4.31171 15.15358,-8.00731 23.09069,-11.29526 -12.1639,-5.4402 -25.2577,-8.93249 -38.34943,-11.39691 -22.06286,-3.90097 -44.8453,-4.41439 -67.01021,-0.92519 -9.7938,1.74769 -19.79379,4.00571 -28.66037,8.8329 -3.40165,1.94894 -7.00989,4.21005 -8.45318,8.00833 -1.13402,2.97784 0.72123,6.16105 3.09277,8.01039 v 0"
       style="fill:#3471c1;fill-opacity:1;fill-rule:nonzero;stroke:none;stroke-width:0.102888"
       id="path32" /><path
       d="m 204.39654,165.24809 c 4.74227,3.79829 10.61875,5.74929 16.39194,7.39223 -1.85567,-1.7446 -5.15463,-3.90097 -3.71134,-6.87881 2.7835,-3.59394 7.93814,-4.00571 12.06184,-4.92986 17.42266,-2.15637 35.0515,-3.59395 52.47415,-2.25803 13.19483,0.81942 26.18656,3.18218 39.07314,5.44021 7.42164,-4.31171 15.15358,-8.00731 23.09069,-11.29526 -12.1639,-5.4402 -25.2577,-8.93249 -38.34943,-11.39691 -22.06286,-3.90097 -44.8453,-4.41439 -67.01021,-0.92519 -9.7938,1.74769 -19.79379,4.00571 -28.66037,8.8329 -3.40165,1.94894 -7.00989,4.21005 -8.45318,8.00833 -1.13402,2.97784 0.72123,6.16105 3.09277,8.01039 z"
       style="fill:#ffffff;fill-opacity:1;stroke:#3471c1;stroke-width:0.0964577;stroke-linecap:butt;stroke-linejoin:miter;stroke-miterlimit:10;stroke-dasharray:none;stroke-opacity:1"
       id="path34" /><path
       d="m 147.18013,136.18745 c 9.48411,3.18218 19.27791,5.74929 29.27831,6.05837 4.0202,0.10268 8.14391,-0.10166 11.64906,-2.15534 -11.95834,-0.72085 -23.91708,-3.69663 -34.63872,-9.13992 -2.37154,-1.33592 -5.05195,-2.87618 -5.97978,-5.64763 0,-3.18218 3.60824,-4.20902 5.97978,-5.23586 14.94844,-5.54597 30.92779,-7.29058 46.59746,-8.93558 46.70158,-3.89994 93.71079,-2.8731 140.41278,1.33592 17.62781,1.95203 35.3618,3.90303 52.47415,8.72816 5.46288,1.84934 11.64844,3.69663 15.25668,8.52381 2.16701,2.87413 0.72268,6.46807 -1.44124,8.93249 3.50309,-1.951 8.45257,-4.41644 7.73195,-9.13889 -1.34123,-4.92781 -6.3938,-7.49491 -10.51751,-9.85768 -13.19379,-6.67447 -27.73192,-10.06407 -42.16488,-13.03986 -41.95767,-8.214729 -84.9473,-10.06407 -127.62765,-8.832887 -32.16552,1.131579 -64.33001,4.212107 -96.08295,9.653337 -5.67009,1.33592 -12.06142,2.46442 -16.18513,6.88086 -2.68038,3.08053 -0.30965,7.39224 2.26763,9.65026 6.49524,5.95671 14.84575,9.24157 22.99006,12.22044 v 0"
       style="fill:#3471c1;fill-opacity:1;fill-rule:nonzero;stroke:none;stroke-width:0.102888"
       id="path36" /><path
       d="m 147.18013,136.18745 c 9.48411,3.18218 19.27791,5.74929 29.27831,6.05837 4.0202,0.10268 8.14391,-0.10166 11.64906,-2.15534 -11.95834,-0.72085 -23.91708,-3.69663 -34.63872,-9.13992 -2.37154,-1.33592 -5.05195,-2.87618 -5.97978,-5.64763 0,-3.18218 3.60824,-4.20902 5.97978,-5.23586 14.94844,-5.54597 30.92779,-7.29058 46.59746,-8.93558 46.70158,-3.89994 93.71079,-2.8731 140.41278,1.33592 17.62781,1.95203 35.3618,3.90303 52.47415,8.72816 5.46288,1.84934 11.64844,3.69663 15.25668,8.52381 2.16701,2.87413 0.72268,6.46807 -1.44124,8.93249 3.50309,-1.951 8.45257,-4.41644 7.73195,-9.13889 -1.34123,-4.92781 -6.3938,-7.49491 -10.51751,-9.85768 -13.19379,-6.67447 -27.73192,-10.06407 -42.16488,-13.03986 -41.95767,-8.214729 -84.9473,-10.06407 -127.62765,-8.832887 -32.16552,1.131579 -64.33001,4.212107 -96.08295,9.653337 -5.67009,1.33592 -12.06142,2.46442 -16.18513,6.88086 -2.68038,3.08053 -0.30965,7.39224 2.26763,9.65026 6.49524,5.95671 14.84575,9.24157 22.99006,12.22044 z"
       style="fill:#ffffff;fill-opacity:1;stroke:#3471c1;stroke-width:0.0964577;stroke-linecap:butt;stroke-linejoin:miter;stroke-miterlimit:10;stroke-dasharray:none;stroke-opacity:1"
       id="path38" /><path
       d="m 404.08614,101.0705 c 10.41442,3.59394 21.54636,7.39223 29.27831,15.60696 -1.33814,-8.93249 -9.07009,-15.09354 -16.69997,-19.099249 -14.64019,-7.598627 -31.02986,-11.090915 -47.31952,-13.964017 -34.43397,-5.443287 -69.38237,-6.777154 -104.32974,-6.161049 -23.8144,0.717762 -47.83498,1.641919 -71.23763,6.571785 -5.567,1.540262 -11.54596,2.567104 -16.39173,5.85197 20.82513,-3.491261 41.95932,-4.929866 63.09331,-5.749286 34.74222,-1.026841 69.58753,0.305999 104.12356,4.620787 19.99997,2.771445 40.10303,6.161049 59.48341,12.322099 v 0"
       style="fill:#3471c1;fill-opacity:1;fill-rule:nonzero;stroke:none;stroke-width:0.102888"
       id="path40" /><path
       d="m 404.08614,101.0705 c 10.41442,3.59394 21.54636,7.39223 29.27831,15.60696 -1.33814,-8.93249 -9.07009,-15.09354 -16.69997,-19.099249 -14.64019,-7.598627 -31.02986,-11.090915 -47.31952,-13.964017 -34.43397,-5.443287 -69.38237,-6.777154 -104.32974,-6.161049 -23.8144,0.717762 -47.83498,1.641919 -71.23763,6.571785 -5.567,1.540262 -11.54596,2.567104 -16.39173,5.85197 20.82513,-3.491261 41.95932,-4.929866 63.09331,-5.749286 34.74222,-1.026841 69.58753,0.305999 104.12356,4.620787 19.99997,2.771445 40.10303,6.161049 59.48341,12.322099 z"
       style="fill:#ffffff;fill-opacity:1;stroke:#3471c1;stroke-width:0.0964577;stroke-linecap:butt;stroke-linejoin:miter;stroke-miterlimit:10;stroke-dasharray:none;stroke-opacity:1"
       id="path42-7" /></g></svg>
