<?xml version="1.0" encoding="UTF-8" standalone="no"?>
<!-- Created with Inkscape (http://www.inkscape.org/) -->

<svg
   version="1.1"
   id="svg2"
   xml:space="preserve"
   width="549.99994"
   height="584.64923"
   viewBox="0 0 549.99994 584.64923"
   sodipodi:docname="css_logo.svg"
   xmlns:inkscape="http://www.inkscape.org/namespaces/inkscape"
   xmlns:sodipodi="http://sodipodi.sourceforge.net/DTD/sodipodi-0.dtd"
   xmlns="http://www.w3.org/2000/svg"
   xmlns:svg="http://www.w3.org/2000/svg"><defs
     id="defs6" /><sodipodi:namedview
     id="namedview4"
     pagecolor="#ffffff"
     bordercolor="#fffcfc"
     borderopacity="1"
     inkscape:pageshadow="2"
     inkscape:pageopacity="0.0"
     inkscape:pagecheckerboard="0"
     inkscape:showpageshadow="0"
     inkscape:deskcolor="#ffffff"
     showgrid="false" /><g
     id="g8"
     inkscape:groupmode="layer"
     inkscape:label="ink_ext_XXXXXX"
     transform="matrix(1.3333333,0,0,-1.3333333,-94.419342,676.52753)"><g
       id="g29884"
       style="fill:none"><rect
         style="display:inline;fill:none;stroke-width:0.791204;paint-order:markers stroke fill"
         id="rect13435"
         width="412.5"
         height="438.48697"
         x="70.814507"
         y="-507.39566"
         transform="scale(1,-1)"
         ry="0"
         rx="0"
         inkscape:export-filename="spring_boot_logo.svg"
         inkscape:export-xdpi="96"
         inkscape:export-ydpi="96" /></g><g
       id="g29888"
       transform="matrix(2.3730631,0,0,2.3730631,-395.79527,-376.91847)"><path
         style="fill:#00c4ff;fill-opacity:1;stroke-width:0.649674;paint-order:markers stroke fill"
         d="m 276.67304,268.1813 c -10.34075,5.38501 -10.34075,20.22067 0,25.60569 9.50988,4.95233 20.52028,-0.99094 21.39586,-11.54921 0.96696,-11.6603 -10.95579,-19.49322 -21.39586,-14.05648 z"
         id="path29198" /><path
         style="fill:#00c4ff;fill-opacity:1;stroke-width:0.649674;paint-order:markers stroke fill"
         d="m 243.72347,206.04124 c -1.19805,0.34484 -3.56235,2.01105 -5.25399,3.70269 -4.21234,4.21234 -5.88646,9.13641 -6.32941,18.61659 -0.31301,6.6993 -0.0582,9.21993 2.20195,21.78173 0.27556,1.5316 -0.0229,1.74434 -4.44638,3.16901 -9.73944,3.1368 -22.10248,10.62931 -26.01244,15.76461 -4.78268,6.28153 -5.74628,12.28669 -2.87856,17.93935 3.87636,7.64087 15.80496,15.65067 29.79217,20.00481 2.0546,0.63959 3.73562,1.51676 3.73562,1.94926 0,0.43251 -0.50114,3.08338 -1.11365,5.89084 -1.56026,7.15152 -1.57615,21.95193 -0.029,26.94909 5.78621,18.68807 23.31184,17.47803 48.03144,-3.31628 l 2.38617,-2.00726 4.11057,3.69973 c 8.35628,7.52105 18.31001,13.05942 26.39419,14.68601 15.98247,3.21578 24.27835,-14.17059 19.26424,-40.37375 -0.51863,-2.71032 -0.94301,-5.26795 -0.94308,-5.68362 -6e-5,-0.41566 1.97327,-1.38982 4.38519,-2.1648 2.41192,-0.77497 6.75887,-2.51751 9.6599,-3.87231 17.44468,-8.14674 24.5149,-18.78175 19.36142,-29.12344 -3.57193,-7.16793 -14.94437,-15.16299 -28.40332,-19.96811 -3.77949,-1.34937 -4.97352,-2.05163 -4.70003,-2.76433 0.98158,-2.55797 2.29049,-13.50952 2.29281,-19.18392 0.005,-11.58366 -3.14072,-20.04407 -8.97135,-24.13035 -4.02735,-2.82249 -10.28991,-3.11115 -16.98482,-0.78288 -6.15686,2.14114 -13.55716,6.64188 -20.14481,12.25172 l -5.24887,4.46978 -4.25107,-3.60644 C 265.9859,208.3652 253.04803,203.35734 243.72345,206.04124 Z m 14.67608,7.90626 c 2.11745,0.8604 5.58021,2.66367 7.69502,4.00728 4.65453,2.95715 12.61572,9.35994 12.61572,10.14621 0,0.31215 -3.23962,4.59119 -7.19916,9.50898 l -7.19916,8.94143 -8.52736,1.11297 c -4.69005,0.61213 -9.85187,1.39546 -11.47072,1.74073 -1.61884,0.34526 -3.01227,0.55883 -3.0965,0.47461 -0.57092,-0.57093 -2.25797,-10.84702 -2.57817,-15.70406 -0.67956,-10.30811 1.56636,-18.4604 5.82696,-21.15089 2.68927,-1.69824 8.41654,-1.31894 13.93337,0.92274 z m 63.80846,-1.19491 c 4.59237,2.3748 6.86718,10.37906 6.28212,22.10467 -0.21395,4.28785 -0.76884,9.40404 -1.23309,11.3693 -0.99643,4.21808 0.2403,4.05144 -14.2367,1.91838 l -10.19264,-1.5018 -3.12568,-4.26357 c -1.71913,-2.34497 -4.96625,-6.45856 -7.21585,-9.14131 l -4.09017,-4.87774 2.79082,-2.49815 c 12.36114,-11.06485 24.80564,-16.32398 31.02119,-13.10978 z m -34.67811,24.57926 c 1.81356,2.21219 4.114,5.11848 5.11209,6.45843 l 1.8147,2.43628 h -10.52603 c -6.51893,0 -10.4436,-0.24 -10.30948,-0.63043 0.33129,-0.96446 9.79786,-12.36836 10.23097,-12.32474 0.20921,0.0211 1.86419,1.84828 3.67775,4.06046 z m 10.8351,15.98016 c 2.2354,0.8499 16.07738,24.06065 16.07738,26.95915 0,1.3707 -6.64067,13.55468 -11.59964,21.28245 l -3.61087,5.62697 -7.93299,0.45755 c -4.36314,0.25166 -11.45573,0.2459 -15.7613,-0.0128 l -7.82831,-0.47035 -3.69851,-5.939 c -4.98005,-7.99685 -11.28744,-19.74921 -11.28744,-21.0315 0,-1.47468 6.58924,-13.63677 11.44621,-21.12685 l 4.10752,-6.33432 h 14.26976 c 7.84839,0 14.96657,0.26491 15.81819,0.5887 z m -39.8799,2.17242 c -0.42939,0.80397 -1.88798,3.27213 -3.24133,5.48481 -1.35335,2.21268 -3.20991,5.50166 -4.12568,7.30884 -0.91576,1.80718 -1.91577,3.28578 -2.22222,3.28578 -0.57039,0 -5.0692,-11.6238 -5.40609,-13.968 -0.16674,-1.16016 0.47436,-1.41447 5.98517,-2.37411 3.39455,-0.59112 6.98617,-1.10274 7.98137,-1.13694 1.67965,-0.0577 1.75345,0.0427 1.02878,1.39962 z m 55.02587,-0.78663 c 10.90943,1.91063 10.82797,1.8814 10.36662,3.71955 -0.73313,2.92104 -5.04145,13.7967 -5.46059,13.7844 -0.22077,-0.007 -1.78182,-2.56458 -3.46898,-5.68465 -1.68716,-3.12008 -3.97704,-7.20772 -5.08861,-9.08366 -2.25547,-3.80646 -2.29472,-3.77705 3.65156,-2.73564 z m -76.01818,5.99147 c 0.2539,1.1572 2.03209,6.01836 3.95155,10.80259 l 3.48994,8.69861 -3.17367,7.86809 c -1.74553,4.32745 -3.53962,9.0375 -3.98689,10.46679 -0.44727,1.42928 -0.93099,2.80621 -1.07494,3.05984 -0.40034,0.70536 -10.95838,-3.18816 -16.68394,-6.15259 -5.42348,-2.80802 -11.57079,-7.93053 -13.12584,-10.93769 -0.51823,-1.00213 -0.94223,-2.96199 -0.94223,-4.35525 0,-6.75358 10.95678,-15.47741 25.80616,-20.54697 2.42203,-0.82687 4.60047,-1.39182 4.84096,-1.25541 0.2405,0.1364 0.64501,1.19479 0.8989,2.35199 z m 101.34167,0.52138 c 11.29364,4.41559 20.95741,11.83157 22.0804,16.94448 1.10333,5.02345 -2.0371,9.76129 -9.85155,14.86262 -4.77106,3.11458 -14.39943,7.33207 -18.49135,8.09972 l -2.27031,0.42591 -1.17859,-3.78287 c -0.64823,-2.08059 -2.45908,-6.83744 -4.02412,-10.57079 l -2.84553,-6.78789 3.4961,-8.47945 c 1.92285,-4.6637 3.84246,-9.57577 4.26579,-10.91573 0.42334,-1.33995 1.06142,-2.43627 1.41795,-2.43627 0.35655,0 3.68709,1.18812 7.40121,2.64027 z m -85.9714,33.92437 c 2.04212,3.65129 4.36179,7.62868 5.15482,8.83866 l 1.44187,2.19996 -4.1803,-0.45927 c -2.29917,-0.25259 -5.93444,-0.82224 -8.07836,-1.26586 -3.29357,-0.68153 -3.86314,-1.00183 -3.67298,-2.06553 0.36111,-2.01986 4.86794,-13.9296 5.26267,-13.90712 0.19764,0.0112 2.03016,3.00788 4.07228,6.65916 z m 68.21032,-0.3453 c 3.52563,9.54731 3.8022,8.72759 -3.38262,10.02572 -3.39456,0.61332 -7.00459,1.12998 -8.02232,1.14814 l -1.8504,0.033 1.36859,-2.11144 c 0.75272,-1.1613 3.04716,-5.10316 5.09877,-8.7597 2.05161,-3.65655 3.89189,-6.65317 4.08953,-6.65916 0.19762,-0.006 1.41193,2.83954 2.69845,6.32342 z m -68.53158,17.0933 c 5.28099,0.76678 10.1865,1.50425 10.90115,1.63882 0.71464,0.13457 1.93555,1.23676 2.71312,2.44931 0.77758,1.21254 3.70112,4.91076 6.49674,8.21826 2.79564,3.3075 5.34815,6.37354 5.67225,6.81342 1.14616,1.5556 -10.31884,10.56274 -18.38099,14.44048 -5.83869,2.80829 -12.21481,3.59256 -15.48003,1.90405 -4.48012,-2.31676 -6.76018,-12.06261 -5.53594,-23.66272 0.96795,-9.17166 2.08625,-13.9347 3.17373,-13.51739 0.461,0.17689 5.15898,0.949 10.43997,1.71577 z m 74.19377,1.42242 c 3.1133,15.36341 1.77767,29.00957 -3.2537,33.24319 -2.62667,2.21021 -5.11556,2.57468 -9.64965,1.4131 -6.8291,-1.74953 -14.77281,-6.41707 -21.70695,-12.75449 -3.62916,-3.31683 -3.66278,-3.3807 -2.53695,-4.81746 0.62752,-0.80084 3.5323,-4.41348 6.45507,-8.02809 2.92275,-3.61461 5.58726,-7.06011 5.9211,-7.65667 0.44979,-0.80372 2.38292,-1.31427 7.46406,-1.97129 3.77138,-0.48765 8.70807,-1.28817 10.97043,-1.77894 2.26234,-0.49076 4.45807,-0.93006 4.87938,-0.97622 0.42708,-0.0468 1.07187,1.42532 1.45721,3.32687 z m -33.08276,1.51284 c 0,0.51831 -7.32843,9.42053 -8.95491,10.87798 -1.30014,1.16503 -1.39062,1.10276 -5.66322,-3.89804 -6.8226,-7.98542 -7.20991,-7.35585 4.52532,-7.35585 5.55104,0 10.09281,0.16916 10.09281,0.37591 z"
         id="path29196" /></g></g></svg>
