<?xml version="1.0" encoding="UTF-8" standalone="no"?>
<!-- Created with Inkscape (http://www.inkscape.org/) -->

<svg
   version="1.1"
   id="svg2"
   xml:space="preserve"
   width="549.99994"
   height="584.64923"
   viewBox="0 0 549.99994 584.64923"
   sodipodi:docname="css_logo.svg"
   xmlns:inkscape="http://www.inkscape.org/namespaces/inkscape"
   xmlns:sodipodi="http://sodipodi.sourceforge.net/DTD/sodipodi-0.dtd"
   xmlns="http://www.w3.org/2000/svg"
   xmlns:svg="http://www.w3.org/2000/svg"><defs
     id="defs6" /><sodipodi:namedview
     id="namedview4"
     pagecolor="#ffffff"
     bordercolor="#fffcfc"
     borderopacity="1"
     inkscape:pageshadow="2"
     inkscape:pageopacity="0.0"
     inkscape:pagecheckerboard="0"
     inkscape:showpageshadow="0"
     inkscape:deskcolor="#ffffff"
     showgrid="false" /><g
     id="g8"
     inkscape:groupmode="layer"
     inkscape:label="ink_ext_XXXXXX"
     transform="matrix(1.3333333,0,0,-1.3333333,-94.419342,676.52753)"><rect
       style="display:inline;fill:none;stroke-width:0.791204;paint-order:markers stroke fill"
       id="rect13435"
       width="412.5"
       height="438.48697"
       x="70.814507"
       y="-507.39566"
       transform="scale(1,-1)"
       ry="0"
       rx="0"
       inkscape:export-filename="java_logo.svg"
       inkscape:export-xdpi="96"
       inkscape:export-ydpi="96" /><g
       inkscape:label="Layer 1"
       id="layer1"
       transform="matrix(5.4971789,0,0,-5.4971789,-512.45979,832.25987)"><path
         style="fill:#6cb33e;fill-opacity:1;stroke-width:0.264583;paint-order:fill markers stroke"
         d="m 128.80359,130.77237 c -2.05933,-0.31462 -3.80938,-1.2478 -5.19327,-2.9133 l -15.19981,-26.21966 c -0.56921,-1.4887 -0.77514,-3.15905 0,-5.319932 l 14.56648,-25.713012 c 0.91541,-2.002678 2.75821,-3.232536 5.69993,-3.546623 l 30.39962,0.126664 c 2.17119,0.595401 4.03187,1.604831 5.19327,3.546623 l 14.31316,24.826356 c 0.47111,1.513307 1.44599,2.522849 0,5.953264 l -14.69315,26.09299 c -0.53753,1.40053 -2.12904,2.56685 -5.69993,3.2933 z"
         id="path24579"
         sodipodi:nodetypes="ccccccccccccc" /><rect
         style="fill:#ffffff;fill-opacity:1;stroke-width:0.297726;paint-order:fill markers stroke"
         id="rect24635"
         width="5.7370257"
         height="23.217031"
         x="140.94168"
         y="79.619019"
         ry="3.6321688" /><path
         style="opacity:1;fill:#ffffff;fill-opacity:1;stroke-width:0.0895657;paint-order:fill markers stroke"
         d="m 141.20039,119.30019 c -3.30721,-0.35139 -6.79481,-1.93999 -9.6731,-4.4061 -3.01098,-2.5798 -4.81505,-5.23324 -6.1005,-8.97264 -0.76753,-2.23276 -0.77183,-2.26155 -0.81744,-5.47028 -0.0461,-3.242571 0.0157,-3.984725 0.46908,-5.638902 1.10916,-4.046347 3.49701,-7.757798 6.57682,-10.222378 l 0.66535,-0.532443 0.94683,0.0053 c 2.31726,0.01296 3.13378,0.961742 2.62472,3.049865 l -0.15527,0.636884 -0.75675,0.569979 c -2.97316,2.239351 -5.06719,5.708756 -5.52106,9.147352 -0.17734,1.343507 -0.12636,4.293223 0.0925,5.352423 0.30974,1.49901 1.17214,3.53771 2.08476,4.92834 2.13935,3.25988 5.44256,5.53871 9.21402,6.35659 2.16528,0.46957 5.26696,0.26681 7.53166,-0.49235 3.16733,-1.06173 6.26367,-3.6732 7.97083,-6.72265 1.36474,-2.4378 1.81707,-4.49616 1.70084,-7.739902 -0.0848,-2.367542 -0.45703,-3.935264 -1.36398,-5.745128 -1.05151,-2.098373 -2.68209,-4.033189 -4.43849,-5.266661 -0.33576,-0.235794 -0.59468,-0.444505 -0.57539,-0.463801 0.0193,-0.01929 -0.0217,-0.27658 -0.0911,-0.571741 -0.24323,-1.034134 -0.13249,-1.800283 0.3376,-2.335694 0.44741,-0.509564 1.08776,-0.760857 2.27361,-0.892231 l 0.54588,-0.06047 0.66326,0.561215 c 1.56555,1.324671 3.74817,3.670726 4.62105,4.967068 1.13349,1.683396 2.28952,4.900131 2.81646,7.837003 0.18083,1.007886 0.15795,4.092092 -0.0395,5.328452 -0.61402,3.84403 -2.18726,7.40375 -4.47962,10.13588 -1.71582,2.045 -4.35606,3.99402 -7.1305,5.26375 -1.83374,0.83921 -3.31387,1.21342 -5.51421,1.39411 -1.21373,0.0997 -3.53646,0.0992 -4.47829,-8e-4 z"
         id="path27771" /></g></g></svg>
